<svg xmlns="http://www.w3.org/2000/svg" width="420" height="278" viewBox="0 0 420 278" version="1.1"><path d="M 107 4.672 C 97.406 5.899, 82 10.423, 82 12.014 C 82 12.422, 85.656 20.573, 90.125 30.128 C 94.593 39.682, 100.390 52.225, 103.005 58 C 105.621 63.775, 116.654 87.625, 127.524 111 C 138.394 134.375, 149.866 159.125, 153.016 166 C 156.167 172.875, 164.933 191.775, 172.496 208 C 186.442 237.920, 189.538 244.597, 195.656 257.952 C 197.534 262.050, 199.222 265.555, 199.408 265.741 C 200.089 266.422, 212.664 261.164, 218.208 257.881 C 263.768 230.896, 268.478 172.407, 227.725 139.701 C 207.875 123.770, 182.989 118.743, 153 124.606 C 151.182 124.961, 151.592 124.497, 154.500 122.904 C 214.950 89.803, 177.143 -4.301, 107 4.672 M 292 17.188 C 289.525 22.189, 283.534 33.755, 278.687 42.890 C 256.941 83.874, 250.703 96.401, 251.853 96.784 C 260.021 99.507, 283.582 121.660, 292.497 135 C 319.764 175.801, 317.471 229.978, 286.946 266.179 C 284.776 268.753, 283 271.116, 283 271.429 C 283 271.743, 312.475 272, 348.500 272 C 384.525 272, 414 271.769, 414 271.486 C 414 271.203, 410.907 264.115, 407.126 255.736 C 403.346 247.356, 398.789 237.125, 397.001 233 C 395.213 228.875, 387.698 211.775, 380.301 195 C 372.904 178.225, 364.676 159.550, 362.016 153.500 C 353.266 133.597, 312.711 41.550, 303.429 20.524 C 296.986 5.928, 297.498 6.078, 292 17.188 M 61.238 133.250 C 57.892 141.637, 53.584 152.550, 51.664 157.500 C 49.743 162.450, 45.698 172.800, 42.674 180.500 C 36.559 196.071, 11.573 259.773, 7.275 270.750 C 6.887 271.742, 20.436 272, 73.010 272 C 135.613 272, 139.205 271.904, 138.709 270.250 C 138.421 269.288, 134.724 261.075, 130.494 252 C 126.264 242.925, 120.422 230.325, 117.511 224 C 114.601 217.675, 110.425 208.675, 108.233 204 C 106.040 199.325, 100.189 186.725, 95.231 176 C 90.273 165.275, 84.233 152.225, 81.809 147 C 79.385 141.775, 75.407 133.113, 72.970 127.750 C 67.467 115.643, 68.443 115.185, 61.238 133.250" fill="#ffffff" /></svg>