<svg id="svg" xmlns="http://www.w3.org/2000/svg" xmlns:xlink="http://www.w3.org/1999/xlink" width="400" height="400"
  viewBox="0, 0, 400,400">
  <g>
    <style>
      path { fill: #000000; }
      @media (prefers-color-scheme: dark) {
        path { fill: #ffffff; }
      }
    </style>
    <path d="M112.001 88.367 C 112.000 88.843,110.875 89.018,109.500 88.755 C 108.125 88.492,107.000 88.559,107.000 88.904 C 107.000 89.249,104.750 90.330,102.000 91.306 C 96.582 93.231,96.256 93.833,98.454 97.846 C 99.254 99.306,101.750 104.550,104.001 109.500 C 106.252 114.450,108.748 119.774,109.547 121.331 C 110.346 122.888,111.000 124.746,111.000 125.459 C 111.000 126.172,111.695 127.332,112.546 128.038 C 113.396 128.743,113.860 129.923,113.577 130.660 C 113.294 131.397,113.525 132.000,114.090 132.000 C 114.656 132.000,114.840 132.450,114.500 133.000 C 114.160 133.550,114.328 134.000,114.874 134.000 C 115.419 134.000,116.182 135.012,116.569 136.250 C 116.957 137.488,118.562 141.324,120.137 144.775 C 121.712 148.226,123.000 151.489,123.000 152.025 C 123.000 152.561,123.395 153.000,123.879 153.000 C 124.362 153.000,125.333 154.463,126.037 156.250 C 127.663 160.380,131.227 168.373,134.731 175.750 C 136.234 178.912,137.471 181.950,137.481 182.500 C 137.492 183.050,137.785 183.725,138.134 184.000 C 139.143 184.797,145.000 198.136,145.000 199.638 C 145.000 200.387,145.367 201.000,145.815 201.000 C 146.995 201.000,150.139 207.966,149.458 209.069 C 149.141 209.581,149.321 210.000,149.858 210.000 C 150.395 210.000,151.642 212.137,152.629 214.750 C 153.617 217.363,155.008 220.099,155.721 220.831 C 156.435 221.562,156.782 222.544,156.493 223.012 C 156.204 223.479,156.432 224.149,156.999 224.499 C 158.391 225.360,161.113 232.009,160.487 233.021 C 160.212 233.465,160.375 233.980,160.850 234.165 C 162.203 234.691,172.052 255.106,171.435 256.106 C 171.131 256.598,171.308 257.000,171.829 257.000 C 172.349 257.000,174.259 260.712,176.072 265.250 C 177.885 269.788,179.732 273.749,180.174 274.053 C 180.617 274.357,182.158 277.506,183.599 281.051 C 185.039 284.596,187.274 289.580,188.564 292.126 C 189.854 294.673,190.630 297.036,190.288 297.378 C 189.946 297.720,190.133 298.000,190.703 298.000 C 191.272 298.000,192.897 300.671,194.313 303.935 L 196.887 309.870 200.548 308.859 C 204.301 307.823,207.812 306.038,214.915 301.554 C 217.140 300.149,219.210 299.000,219.515 299.000 C 220.574 299.000,233.842 284.664,235.166 282.089 C 235.898 280.665,236.746 279.275,237.051 279.000 C 237.356 278.725,238.618 276.025,239.856 273.000 C 241.094 269.975,242.485 266.600,242.947 265.500 C 244.440 261.943,245.702 248.598,244.837 245.507 C 244.377 243.860,244.000 240.598,244.000 238.257 C 244.000 235.915,243.621 234.000,243.158 234.000 C 242.379 234.000,239.626 226.774,239.539 224.500 C 239.517 223.950,238.713 222.628,237.750 221.561 C 236.787 220.495,236.000 219.238,236.000 218.768 C 236.000 218.297,234.875 216.699,233.500 215.217 C 232.125 213.734,231.000 212.188,231.000 211.781 C 231.000 210.745,222.481 203.005,218.125 200.083 C 216.131 198.746,214.275 197.368,214.000 197.020 C 213.201 196.011,204.884 192.343,200.250 190.956 C 197.912 190.256,196.000 189.391,196.000 189.033 C 196.000 188.675,193.711 188.347,190.914 188.305 C 188.117 188.263,185.327 187.727,184.714 187.114 C 183.225 185.625,169.000 185.624,169.000 187.113 C 169.000 187.780,167.805 188.052,166.024 187.790 C 164.388 187.550,162.911 187.768,162.742 188.275 C 162.573 188.781,161.373 189.039,160.075 188.848 C 157.986 188.540,158.313 188.113,162.918 185.139 C 165.780 183.291,168.652 180.928,169.301 179.889 C 169.950 178.850,171.123 178.000,171.907 178.000 C 172.692 178.000,173.067 177.734,172.743 177.409 C 172.418 177.084,173.644 174.863,175.469 172.473 C 177.293 170.083,179.570 166.074,180.529 163.564 C 181.487 161.054,182.548 159.000,182.886 159.000 C 183.224 159.000,183.582 156.873,183.682 154.272 C 183.783 151.672,184.345 149.385,184.932 149.189 C 186.363 148.712,186.312 136.712,184.874 135.274 C 184.254 134.654,183.699 132.314,183.641 130.074 C 183.582 127.833,183.250 126.000,182.903 126.000 C 182.556 126.000,181.511 124.007,180.580 121.571 C 179.650 119.135,177.315 115.081,175.391 112.561 C 173.366 109.909,172.194 107.459,172.607 106.740 C 173.000 106.058,172.979 105.807,172.562 106.182 C 171.918 106.760,161.489 99.126,160.000 96.986 C 159.365 96.072,145.529 90.000,144.082 90.000 C 143.487 90.000,143.000 89.612,143.000 89.139 C 143.000 88.665,141.875 88.492,140.500 88.755 C 139.125 89.018,138.000 88.843,138.000 88.367 C 138.000 87.890,132.151 87.500,125.001 87.500 C 117.851 87.500,112.001 87.890,112.001 88.367 M278.430 91.887 C 278.731 92.374,278.308 93.329,277.489 94.009 C 276.670 94.689,276.000 95.684,276.000 96.221 C 276.000 97.642,272.948 104.060,270.754 107.250 C 269.715 108.763,269.175 110.000,269.554 110.000 C 269.934 110.000,269.792 110.563,269.238 111.250 C 268.685 111.938,265.985 116.775,263.239 122.000 C 253.685 140.179,250.711 145.504,249.773 146.112 C 249.254 146.448,248.934 146.898,249.061 147.112 C 249.568 147.958,247.807 152.000,246.933 152.000 C 246.420 152.000,246.000 152.518,246.000 153.150 C 246.000 153.783,244.815 156.723,243.366 159.683 C 241.918 162.644,240.905 165.192,241.116 165.346 C 241.327 165.499,244.650 167.831,248.500 170.526 C 259.836 178.464,276.000 195.180,276.000 198.966 C 276.000 199.581,276.939 201.077,278.087 202.292 C 281.672 206.084,284.621 212.737,289.261 227.500 C 290.126 230.250,290.866 233.175,290.905 234.000 C 290.945 234.825,291.246 237.750,291.574 240.500 C 292.526 248.474,292.305 255.033,290.642 268.185 C 290.201 271.672,288.696 277.062,286.924 281.500 C 286.485 282.600,285.840 284.519,285.491 285.765 C 285.142 287.010,284.444 287.774,283.939 287.463 C 283.435 287.151,283.277 287.559,283.588 288.369 C 284.093 289.685,279.811 298.742,278.089 300.000 C 277.712 300.275,276.226 302.525,274.787 305.000 C 273.347 307.475,271.208 310.518,270.034 311.763 C 266.099 315.932,266.958 316.000,323.590 316.000 C 385.103 316.000,380.988 316.630,376.627 307.879 C 375.213 305.041,374.295 302.332,374.587 301.859 C 374.879 301.387,374.694 301.000,374.175 301.000 C 373.657 301.000,372.201 298.413,370.940 295.250 C 369.680 292.087,366.703 285.349,364.324 280.276 C 361.946 275.202,360.000 270.641,360.000 270.140 C 360.000 269.639,359.328 267.940,358.506 266.364 C 357.685 264.789,357.010 262.768,357.006 261.872 C 357.003 260.977,356.375 259.726,355.611 259.092 C 354.848 258.459,352.337 253.341,350.031 247.720 C 347.726 242.099,344.736 235.343,343.388 232.707 C 342.039 230.070,341.202 227.483,341.527 226.957 C 341.852 226.431,341.730 226.000,341.256 226.000 C 340.360 226.000,334.000 211.258,334.000 209.181 C 334.000 208.532,333.622 208.000,333.161 208.000 C 331.984 208.000,329.853 203.048,330.546 201.925 C 330.861 201.416,330.672 201.000,330.126 201.000 C 329.581 201.000,328.818 199.988,328.430 198.750 C 328.042 197.512,326.265 193.350,324.480 189.500 C 319.106 177.910,317.000 173.139,317.000 172.559 C 317.000 172.256,315.388 168.519,313.417 164.254 C 311.447 159.989,309.760 156.050,309.667 155.500 C 309.575 154.950,309.217 154.275,308.870 154.000 C 307.997 153.306,300.000 133.636,300.000 132.182 C 300.000 131.532,299.622 131.000,299.161 131.000 C 297.984 131.000,295.853 126.048,296.546 124.925 C 296.861 124.416,296.615 124.000,296.000 124.000 C 295.385 124.000,295.160 123.550,295.500 123.000 C 295.840 122.450,295.715 122.000,295.221 122.000 C 294.728 122.000,293.484 119.525,292.455 116.500 C 291.427 113.475,290.229 111.000,289.793 111.000 C 289.357 111.000,289.000 109.875,289.000 108.500 C 289.000 107.125,288.594 106.000,288.098 106.000 C 287.048 106.000,284.761 100.008,285.802 99.985 C 286.186 99.976,285.988 99.639,285.362 99.235 C 284.737 98.831,283.522 96.813,282.663 94.750 C 281.775 92.616,280.408 91.000,279.492 91.000 C 278.606 91.000,278.129 91.399,278.430 91.887 M83.411 186.500 C 83.066 187.875,82.355 189.000,81.833 189.000 C 81.310 189.000,81.139 189.416,81.454 189.925 C 82.106 190.980,80.041 196.149,78.549 197.196 C 78.004 197.578,77.871 198.204,78.253 198.586 C 78.635 198.968,78.220 200.680,77.331 202.390 C 74.347 208.130,74.000 208.967,74.000 210.415 C 74.000 211.208,73.438 212.452,72.750 213.179 C 72.063 213.905,71.379 215.625,71.230 217.000 C 71.082 218.375,69.844 221.795,68.480 224.600 C 67.116 227.404,66.000 230.352,66.000 231.150 C 66.000 231.947,65.620 233.028,65.155 233.550 C 64.691 234.073,63.286 237.313,62.033 240.750 C 60.781 244.188,59.313 247.000,58.771 247.000 C 58.229 247.000,58.027 247.627,58.321 248.393 C 58.615 249.159,58.026 251.522,57.014 253.643 C 56.001 255.764,53.337 262.646,51.094 268.936 C 48.851 275.226,46.450 280.732,45.758 281.171 C 45.066 281.610,44.848 281.976,45.273 281.985 C 45.698 281.993,45.405 283.012,44.621 284.250 C 43.838 285.488,42.870 288.060,42.471 289.967 C 42.072 291.874,41.381 294.124,40.935 294.967 C 40.489 295.810,38.907 299.875,37.419 304.000 C 35.931 308.125,34.289 312.043,33.771 312.706 C 33.252 313.370,33.118 314.382,33.473 314.956 C 34.506 316.627,144.637 316.389,145.279 314.715 C 145.551 314.008,143.609 308.945,140.965 303.465 C 138.320 297.984,136.009 292.600,135.828 291.500 C 135.648 290.400,135.223 289.275,134.884 289.000 C 133.669 288.013,129.976 280.000,130.730 279.985 C 131.153 279.976,131.049 279.639,130.498 279.235 C 129.948 278.831,128.965 277.375,128.316 276.000 C 122.379 263.429,119.288 256.045,119.764 255.569 C 120.077 255.256,119.881 255.000,119.327 255.000 C 117.816 255.000,115.964 250.274,116.686 248.262 C 117.034 247.293,116.939 246.845,116.475 247.268 C 115.649 248.019,109.871 237.716,109.735 235.250 C 109.698 234.563,109.265 234.000,108.774 234.000 C 108.284 234.000,108.160 233.550,108.500 233.000 C 108.840 232.450,108.615 232.000,108.000 232.000 C 107.385 232.000,107.162 231.547,107.505 230.992 C 107.847 230.438,107.398 229.255,106.506 228.363 C 105.615 227.472,105.122 226.125,105.411 225.371 C 105.700 224.617,105.595 224.000,105.177 224.000 C 104.469 224.000,98.290 211.651,92.668 199.000 C 86.703 185.576,85.897 184.000,84.994 184.000 C 84.468 184.000,83.756 185.125,83.411 186.500 "
      stroke="none">
    </path>
  </g>
</svg>